<?xml version="1.0" encoding="UTF-8"?>
<svg id="Layer_2" xmlns="http://www.w3.org/2000/svg" viewBox="0 0 1921 565.69">
  <defs>
    <style>
      .cls-1 {
        fill: #050000;
      }

      .cls-1, .cls-2 {
        stroke: #000;
        stroke-miterlimit: 10;
      }

      .cls-2 {
        fill: #161616;
      }
    </style>
  </defs>
  <g id="Layer_1-2" data-name="Layer_1">
    <path class="cls-2" d="M.5,46.19S299.5,11.19,458.5,17.19s237,21.31,468,14.15,442-20.15,557-6.15,248,16.31,306,6.15,131-6.15,131-6.15v540H.5V46.19Z"/>
    <path class="cls-1" d="M.5,24.9v43.47s274-24.85,328-21.74,483,24.95,565,21.74c82-3.21,444-20.55,531-16.06s174,12.2,234,10.92c60-1.28,220-10.92,262-10.28V16.99s-183,10.03-227,7.9c-44-2.12-254-20.75-378-16.9-124,3.85-348,12.2-443,9.63S407.5-5.49,327.5,2.22.5,24.9.5,24.9Z"/>
  </g>
</svg>