<?xml version="1.0" encoding="UTF-8"?>
<svg id="Layer_2" data-name="Layer 2" xmlns="http://www.w3.org/2000/svg" viewBox="0 0 947.25 996.38">
  <defs>
    <style>
      .cls-1 {
        fill: none;
        stroke: #fff;
        stroke-miterlimit: 10;
        stroke-width: 40px;
      }

      .cls-2 {
        fill: #fff;
        stroke-width: 0px;
      }
    </style>
  </defs>
  <g id="Layer_1-2" data-name="Layer 1">
    <path class="cls-2" d="M692.95,471.41v352.23h-114.39l-3.63-57.19h-1.81c-5.45,13.93-13.16,25.42-23.15,34.5-9.99,9.08-21.19,15.89-33.59,20.43-12.41,4.54-25.73,7.72-39.94,9.53-14.23,1.82-28.6,2.72-43.12,2.72-42.98,0-76.87-7.12-101.67-21.33-24.82-14.21-43.58-35.55-56.29-64-12.71-28.44-20.74-63.55-24.06-105.31-3.33-41.76-4.99-89.56-4.99-143.44s3.18-102.58,9.53-144.34c6.36-41.76,18.45-76.85,36.31-105.31,17.84-28.44,42.51-50.07,73.99-64.91,31.46-14.82,72.02-22.24,121.65-22.24,29.65,0,57.04,3.94,82.16,11.8,25.11,7.87,46.75,20.58,64.91,38.13,18.16,17.56,32.37,40.1,42.67,67.63,10.28,27.55,15.43,60.98,15.43,100.31h-163.41c0-34.5-3.04-59.6-9.08-75.35-6.06-18.75-19.06-28.14-39.04-28.14-13.93,0-24.96,3.33-33.14,9.99-8.17,6.67-14.23,18.47-18.16,35.4-3.94,16.95-6.51,39.8-7.72,68.54-1.22,28.75-1.82,64.91-1.82,108.48s.6,79.75,1.82,108.48c1.21,28.75,3.77,51.6,7.72,68.54,3.93,16.95,9.67,28.75,17.25,35.41,7.56,6.67,17.7,9.98,30.41,9.98,9.08,0,17.09-1.81,24.06-5.45,6.95-3.63,12.85-10.44,17.7-20.43,4.84-9.99,8.62-23.9,11.35-41.76,2.72-17.84,4.09-40.7,4.09-68.54h-59.92v-114.38h217.88Z"/>
    <ellipse class="cls-1" cx="473.63" cy="498.19" rx="453.63" ry="478.19"/>
  </g>
</svg>