

<?xml version="1.0" encoding="UTF-8"?>
<svg id="Layer_2" data-name="Layer 2" xmlns="http://www.w3.org/2000/svg" viewBox="0 0 905.36 577.36">
  <defs>
  </defs>
  <g id="Layer_2-2" data-name="Layer 2">
    <rect className={styles.nameTwo} width="905.36" height="577.36" rx="137.75" ry="137.75"/>
    <rect className={styles.nameOne} x="31.63" y="33.62" width="842.1" height="511.72" rx="101.05" ry="101.05"/>
    <rect className={styles.nameTwo} x="55.36" y="158.99" width="791.84" height="293.88"/>
    <g>
      <path className={styles.nameTwo} d="M306.78,110.88V46.46h13.01v25.36h25.49v-25.36h13.01v64.42h-13.01v-28.17h-25.49v28.17h-13.01Z"/>
      <path className={styles.nameTwo} d="M371.73,110.88V46.46h47.77v10.9h-34.76v14.28h32.34v10.85h-32.34v17.53h35.99v10.85h-49Z"/>
      <path className={styles.nameTwo} d="M432.11,110.88v-63.9h13.01v53.04h32.34v10.85h-45.35Z"/>
      <path className={styles.nameTwo} d="M487.09,110.88v-63.9h13.01v53.04h32.34v10.85h-45.35Z"/>
      <path className={styles.nameTwo} d="M539.08,79.07c0-6.56.98-12.07,2.94-16.52,1.46-3.28,3.46-6.23,6-8.83,2.53-2.61,5.31-4.54,8.33-5.8,4.01-1.7,8.64-2.55,13.89-2.55,9.49,0,17.09,2.94,22.79,8.83s8.55,14.08,8.55,24.57-2.83,18.54-8.48,24.41c-5.65,5.87-13.21,8.81-22.68,8.81s-17.2-2.92-22.85-8.77-8.48-13.89-8.48-24.15ZM552.48,78.63c0,7.3,1.68,12.83,5.05,16.59,3.37,3.76,7.65,5.65,12.83,5.65s9.44-1.87,12.77-5.6c3.32-3.74,4.99-9.34,4.99-16.81s-1.62-12.89-4.86-16.52c-3.24-3.63-7.54-5.45-12.9-5.45s-9.68,1.84-12.96,5.52c-3.28,3.68-4.92,9.22-4.92,16.63Z"/>
      <path className={styles.nameTwo} d="M348.55,145.88v-25.77h7.79l4.68,17.58,4.62-17.58h7.8v25.77h-4.83v-20.29l-5.12,20.29h-5.01l-5.1-20.29v20.29h-4.83Z"/>
      <path className={styles.nameTwo} d="M385.37,145.88v-10.85l-9.44-14.92h6.1l6.06,10.2,5.94-10.2h5.99l-9.47,14.96v10.81h-5.19Z"/>
      <path className={styles.nameTwo} d="M412.02,145.88v-25.77h5.06l10.55,17.21v-17.21h4.83v25.77h-5.22l-10.39-16.8v16.8h-4.83Z"/>
      <path className={styles.nameTwo} d="M461.21,145.88h-5.66l-2.25-5.85h-10.3l-2.13,5.85h-5.52l10.04-25.77h5.5l10.32,25.77ZM451.63,135.69l-3.55-9.56-3.48,9.56h7.03Z"/>
      <path className={styles.nameTwo} d="M463.9,145.88v-25.77h7.79l4.68,17.58,4.62-17.58h7.8v25.77h-4.83v-20.29l-5.12,20.29h-5.01l-5.1-20.29v20.29h-4.83Z"/>
      <path className={styles.nameTwo} d="M493.95,145.88v-25.77h19.11v4.36h-13.9v5.71h12.94v4.34h-12.94v7.01h14.4v4.34h-19.6Z"/>
      <path className={styles.nameTwo} d="M527.81,145.88v-25.77h5.2v25.77h-5.2Z"/>
      <path className={styles.nameTwo} d="M536.65,137.5l5.06-.49c.3,1.7.92,2.95,1.85,3.74s2.19,1.2,3.77,1.2c1.68,0,2.94-.35,3.79-1.06s1.27-1.54,1.27-2.49c0-.61-.18-1.13-.54-1.56s-.98-.8-1.87-1.12c-.61-.21-2-.59-4.17-1.12-2.79-.69-4.75-1.54-5.87-2.55-1.58-1.42-2.37-3.15-2.37-5.19,0-1.31.37-2.54,1.12-3.68s1.82-2.01,3.22-2.61,3.09-.9,5.07-.9c3.23,0,5.67.71,7.3,2.13s2.49,3.31,2.58,5.68l-5.2.23c-.22-1.32-.7-2.28-1.43-2.86s-1.83-.87-3.3-.87-2.7.31-3.55.93c-.55.4-.83.93-.83,1.6,0,.61.26,1.13.77,1.56.66.55,2.25,1.12,4.78,1.72s4.4,1.22,5.62,1.85,2.16,1.51,2.85,2.62,1.03,2.48,1.03,4.1c0,1.48-.41,2.86-1.23,4.15s-1.98,2.25-3.48,2.87-3.37.94-5.61.94c-3.26,0-5.76-.75-7.51-2.26s-2.79-3.7-3.13-6.58Z"/>
    </g>
    <g>
      <path className={styles.nameThree} d="M178.11,337.17c-8.17,0-14.94-2.5-20.33-7.5-5.86-5.47-8.79-12.85-8.79-22.15,0-13.48,5.27-25.23,15.82-35.27,10.31-9.84,21.74-14.45,34.28-13.83,3.87.2,6.25.37,7.15.53,2.38.35,4.65,1.15,6.8,2.4.78.43,1.17,1.09,1.17,1.99,0,1.6-.7,2.4-2.11,2.4-.35,0-.72-.1-1.11-.29-4.22-2.42-8.22-3.73-12.01-3.93-11.76-.59-22.48,3.73-32.17,12.95-9.88,9.38-14.82,20.39-14.82,33.05,0,8.28,2.6,14.84,7.79,19.69,4.8,4.53,10.92,6.8,18.34,6.8,8.67,0,15.84-1.56,21.5-4.69,2.73-1.48,7.13-5.04,13.18-10.66v-.23c0-2.19.08-8.01.23-17.46-1.33.12-2.89.18-4.69.18-1.52-.04-3.69-.14-6.5-.29-2.66-.16-4.47-.23-5.45-.23s-1.46-.49-1.46-1.46.51-1.46,1.52-1.46c8.63,0,14.18-.23,16.64-.7v-1.05c0-.94.49-1.41,1.46-1.41s1.44.47,1.41,1.41v.35c2.07-.74,2.99-1.11,2.75-1.11,1.41,0,2.11.76,2.11,2.29,0,.74-.33,1.31-1,1.7-1.02.67-2.36,1.15-4.04,1.46-.2,7.77-.25,13.5-.18,17.17,1.17.86,1.23,1.78.18,2.75l-.18.12c0,8.48.62,15.22,1.88,20.21.19.94-.16,1.5-1.05,1.7-.94.23-1.52-.1-1.76-1-1.02-4.3-1.62-10.43-1.82-18.4-6.13,5.55-11.02,9.14-14.65,10.78-4.77,2.15-11.47,3.22-20.1,3.22Z"/>
      <path className={styles.nameThree} d="M252.23,289.3c1.09,1.84,1.64,2.95,1.64,3.34,0,1.13-.61,1.7-1.82,1.7-.59,0-1.46-.92-2.64-2.75l-.29-.35c-5.16,3.56-9.79,8.53-13.89,14.91s-6.9,12.9-8.38,19.54c-.47,3.98-.8,7.44-1,10.37v.23h-.06c-.12.86-.64,1.29-1.58,1.29-.86,0-1.35-.37-1.46-1.11v-.23c-.2-3.75.23-7.81,1.29-12.19,1.99-16.21,2.95-27.09,2.87-32.64l-1-.06c-.59-.04-.68-.51-.29-1.41.94-2.03,1.97-3.05,3.11-3.05.55,0,.84.53.88,1.58.27,6.17-.08,13.77-1.05,22.79,5-10.55,11.37-18.4,19.1-23.55.23-1.25,1-1.72,2.29-1.41.35-.19.7-.29,1.05-.29,1.21,0,1.82.63,1.82,1.88,0,.55-.2,1.02-.59,1.41Z"/>
      <path className={styles.nameThree} d="M269.63,331.08c-5.04,4.61-9.26,6.91-12.66,6.91-5.08,0-7.62-3.89-7.62-11.66,0-.66.02-1.31.06-1.93.78-10.86,5.1-19.37,12.95-25.55,7.38-5.78,16.68-8.67,27.89-8.67,2.19,0,3.71.43,4.57,1.29.39-.3,1.01-.73,1.88-1.29,1.41-.74,2.11-.37,2.11,1.11,0,2.93-.63,6.65-1.88,11.18-1.13,4.02-1.9,7.67-2.29,10.94-.16,2.73-.51,7.3-1.05,13.69-.23,1.8-.2,3.86.12,6.2.35,2.54.53,3.86.53,3.98-.04,1.01-1.29,1.5-3.75,1.46-.63,0-.9-.18-.82-.53,0-1.72.27-5.57.82-11.54.43-4.18.86-8.36,1.29-12.54.59-4.84,1.37-8.96,2.34-12.36l.18-.53c-2.97,4.73-6.99,10.16-12.07,16.29-4.88,5.86-9.08,10.37-12.6,13.54ZM292.84,295.28c-.2-.04-.41-.1-.64-.18-.08-.04-.72-.6-1.93-1.7-.04-.04-.1-.1-.18-.18-10.51,0-19.12,2.66-25.84,7.97-7.11,5.59-11.02,13.34-11.72,23.26-.55,6.99,1,10.49,4.63,10.49,4.3,0,10.86-5.29,19.69-15.88,7.46-8.87,12.79-16.8,16-23.79Z"/>
      <path className={styles.nameThree} d="M300.92,336.53c-.55.39-1.13.45-1.76.18-.67-.31-.94-.86-.82-1.64.23-2.15,1.03-6.8,2.4-13.95.94-5.04,1.41-9.86,1.41-14.47,0-3.94-.39-7.66-1.17-11.13-.27-1.29.25-1.93,1.58-1.93.82,0,1.33.41,1.52,1.23.82,3.71,1.23,7.66,1.23,11.84,0,2.77-.14,5.45-.41,8.03,5.47-10.7,11.44-18.63,17.93-23.79,1.44-1.17,2.64-1.76,3.57-1.76,2.15,0,3.46,3.05,3.93,9.14.04.63.06,4.28.06,10.96,0,5.86-.35,14.65-1.05,26.37-.08,1.02-.61,1.52-1.58,1.52-1.13,0-1.66-.57-1.58-1.7.7-11.68,1.05-20.41,1.05-26.19,0-9.02-.39-14.61-1.17-16.76-2.42,1.45-5.45,4.51-9.08,9.2-3.83,5-7.11,10.18-9.84,15.53-3.63,7.15-5.35,13.07-5.16,17.75.04.82-.31,1.35-1.05,1.58Z"/>
      <path className={styles.nameThree} d="M341.59,289.59c-.43.78-1.08,1.17-1.93,1.17-1.41,0-2.11-.64-2.11-1.93,0-.86.78-2.3,2.34-4.34,1.13-1.37,2.25-2.73,3.34-4.1.39-.51.86-.76,1.41-.76,1.01,0,1.41.61,1.17,1.82-.67,3.44-1.21,7.62-1.64,12.54,2.97-.59,7.66-1.52,14.06-2.81.47-.08.84.04,1.11.35.27.31.41.68.41,1.11,0,.86-.51,1.41-1.52,1.64-3.32.54-8.09,1.46-14.3,2.74l-.23,2.87c-.31,7.27-.86,17.8-1.64,31.59.51.51.62,1.17.35,1.99-.23.39-.49,1.17-.76,2.34-.2.86-.78,1.29-1.76,1.29-.55,0-1.09-.45-1.64-1.35v-.29c-.08-.9.06-2.13.41-3.69v-.06c.35-7.07.98-17.67,1.88-31.82v-2.05c-2.94.94-5.53,2.13-7.77,3.57-.39.23-.77.35-1.16.35-1.43,0-2.14-.76-2.14-2.29,0-.78.41-1.33,1.23-1.64,2.97-1.17,6.39-2.23,10.25-3.16.19-1.72.41-3.42.64-5.1Z"/>
      <path className={styles.nameThree} d="M427.66,263.4l.12.06c-.23,1.25-.8,1.88-1.7,1.88-1.6,0-2.44-.8-2.52-2.4-1.88.94-4.2,3.05-6.97,6.33-1.99,2.58-4,5.14-6.04,7.68-9.57,11.99-14.36,23.55-14.36,34.69,0,16.21,7.38,24.32,22.15,24.32,8.67,0,16.52-3.03,23.55-9.08,7.27-6.25,10.9-13.59,10.9-22.03,0-6.17-2.79-13.48-8.38-21.91-4.77-7.19-9.61-12.6-14.53-16.23-.59-.47-.88-1.03-.88-1.7,0-1.48.72-2.23,2.17-2.23.43,0,.86.16,1.29.47,5.04,3.79,10.04,9.71,15,17.75,5.62,9.14,8.44,17.09,8.44,23.85,0,9.42-4,17.54-12.01,24.38-7.62,6.56-16.13,9.84-25.55,9.84-8.24,0-14.5-2.36-18.78-7.09-4.28-4.73-6.42-11.5-6.42-20.33,0-11.72,5.04-23.89,15.12-36.5,4.49-5.62,7.03-8.77,7.62-9.43,3.83-4.06,7.05-6.09,9.67-6.09,1.91,0,2.87.59,2.87,1.76,0,.27-.21.88-.64,1.82v.12s-.08.04-.12.12Z"/>
      <path className={styles.nameThree} d="M464.34,316.14c2.62-6.17,5.84-11.76,9.67-16.76.27-.35.9-1.25,1.88-2.7,2.77-4.14,5.37-6.21,7.79-6.21,2.73,0,4.1,3.11,4.1,9.32,0,3.44-.14,7.17-.41,11.19l1.64-4.04c2.38-5.74,3.93-9.24,4.63-10.49,2.58-4.61,5.21-6.91,7.91-6.91,1.41,0,2.25,1.62,2.52,4.86.35,4.34.53,6.37.53,6.09-.16,9.1-.31,15.37-.47,18.81-.23,7.11-.67,13.38-1.29,18.81-.12.94-.64,1.41-1.58,1.41-1.17,0-1.7-.59-1.58-1.76.82-7.54,1.41-19.98,1.76-37.32,0-.51-.27-3.01-.82-7.5-3.59,2.11-8.24,11.7-13.95,28.77l-.47,1.46c-.62,4.88-1.35,9.59-2.17,14.12-.16.86-.67,1.29-1.52,1.29-1.33,0-1.88-.62-1.64-1.88l.06-.29c-.27-.27-.41-.64-.41-1.11,0-3.36.84-7.66,2.52-12.89,1.02-8.4,1.52-15.94,1.52-22.62,0-3.2-.27-5.23-.82-6.09-1.13,0-2.5,1.04-4.1,3.11-1.02,1.52-2.05,3.03-3.11,4.51-4.92,6.45-9.24,15.18-12.95,26.19-.39,1.68-1.19,4.08-2.4,7.21l-.18,1.7c-.12.98-.64,1.46-1.58,1.46s-1.5-.47-1.58-1.41c-.59-.27-.88-.76-.88-1.46,0-.78.39-1.27,1.17-1.46.16-1.13,1.25-7.42,3.28-18.87,1.37-7.58,2.05-13.91,2.05-18.98,0-1.41-.12-3.11-.35-5.1-.16-1.17.37-1.76,1.58-1.76.94,0,1.46.47,1.58,1.41.23,2.11.35,3.93.35,5.45,0,5.35-.76,12.17-2.29,20.45Z"/>
      <path className={styles.nameThree} d="M516.66,337.29c-3.09,0-5.51-1.76-7.27-5.27-1.52-2.97-2.17-5.98-1.93-9.02.82-11.87,5.64-21.93,14.47-30.18.47-.47.98-.7,1.52-.7,1.37,0,2.05.7,2.05,2.11,0,.59-.25,1.11-.76,1.58-8.87,8.32-13.65,17.38-14.36,27.19-.2,2.62.36,5.16,1.67,7.62,1.31,2.46,2.88,3.69,4.72,3.69,5.86,0,11.19-2.93,16-8.79,4.49-5.51,6.95-11.44,7.38-17.81.27-3.91-1.09-7.01-4.1-9.32-1.25-.94-2.5-1.85-3.75-2.75-1.37-1.13-2.31-2.36-2.81-3.69-.08-.27-.12-.53-.12-.76,0-1.48.78-2.23,2.34-2.23.86,0,1.44.43,1.76,1.29.43,1.13,1.29,2.25,2.58,3.34,1.09.9,2.19,1.8,3.28,2.7,2.54,2.38,3.81,5.61,3.81,9.67,0,7.23-2.56,14.14-7.68,20.74-5.47,7.07-11.74,10.61-18.81,10.61Z"/>
      <path className={styles.nameThree} d="M549.77,319.77c7.58-17.23,15.27-28.26,23.09-33.11.27-.19.53-.29.76-.29.98,0,1.78,1.04,2.4,3.11.62,2.07.94,6.09.94,12.07,0,4.18-.78,16.7-2.34,37.56-.08,1.13-.67,1.7-1.76,1.7-1.33,0-1.95-.66-1.88-1.99.04-.35.62-6.45,1.76-18.28.74-7.81,1.11-14.14,1.11-18.98,0-6.01-.27-9.79-.82-11.31-8.28,6.06-16.11,18.81-23.5,38.26-.9,2.31-1.43,4.1-1.58,5.39,0,.35-.04,1-.12,1.93-.16,1.33-.53,2.13-1.11,2.4-.31.16-.61.23-.88.23-.9,0-1.49-1.11-1.76-3.34l-.06-.76c-.04-.23-.08-.41-.12-.53-.16-.47-.2-.84-.12-1.11,4.49-17.3,6.83-39.86,7.03-67.68l-.64-1.35c-1.72.35-2.58-.35-2.58-2.11,0-1.13.59-1.82,1.76-2.05l1.99.59c.39-.08.7.14.94.64.98-.04,1.46.45,1.46,1.46,0,22.34-1.33,41.52-3.98,57.54Z"/>
      <path className={styles.nameThree} d="M610.36,318.6c-.04,3.05.06,6.58.29,10.61.08-.16.16-.23.23-.23.35,0,.57,1.29.64,3.87.12,2.62-.04,4.47-.47,5.57-.35.86-.96,1.29-1.82,1.29-1.02,0-1.54-.55-1.58-1.64-.55-13.48-.82-19.92-.82-19.34.08-3.59.37-6.86.88-9.79.51-2.93,1.02-5.82,1.52-8.67-5.24,11.29-10.84,21-16.82,29.12-1.72,2.34-2.89,3.85-3.52,4.51-1.29,1.52-2.72,2.79-4.28,3.81l-1,.59c-1.13.74-2.15,1.11-3.05,1.11-1.05,0-1.58-.64-1.58-1.93.12-5.86.96-13.92,2.52-24.2,1.68-10.9,2.64-18.81,2.87-23.73.08-1.41.84-2.11,2.29-2.11,1.37,0,2.03.7,1.99,2.11-.27,5-1.39,12.64-3.34,22.91-1.91,10.08-2.99,17.83-3.22,23.26l1-.59c2.46-1.6,5.78-5.51,9.96-11.72,3.2-4.69,5.76-8.89,7.67-12.6,2.81-5.51,4.61-9.08,5.39-10.72,1.8-3.75,3.32-7.34,4.57-10.78.31-.78.84-1.17,1.58-1.17.98,0,1.41.55,1.29,1.64-.27,2.58-.94,7.36-1.99,14.36-.74,4.92-1.15,9.75-1.23,14.47Z"/>
      <path className={styles.nameThree} d="M617.8,336.53c-.55.39-1.13.45-1.76.18-.67-.31-.94-.86-.82-1.64.23-2.15,1.03-6.8,2.4-13.95.94-5.04,1.41-9.86,1.41-14.47,0-3.94-.39-7.66-1.17-11.13-.27-1.29.25-1.93,1.58-1.93.82,0,1.33.41,1.52,1.23.82,3.71,1.23,7.66,1.23,11.84,0,2.77-.14,5.45-.41,8.03,5.47-10.7,11.45-18.63,17.93-23.79,1.44-1.17,2.64-1.76,3.57-1.76,2.15,0,3.46,3.05,3.93,9.14.04.63.06,4.28.06,10.96,0,5.86-.35,14.65-1.05,26.37-.08,1.02-.61,1.52-1.58,1.52-1.13,0-1.66-.57-1.58-1.7.7-11.68,1.05-20.41,1.05-26.19,0-9.02-.39-14.61-1.17-16.76-2.42,1.45-5.45,4.51-9.08,9.2-3.83,5-7.11,10.18-9.84,15.53-3.63,7.15-5.35,13.07-5.16,17.75.04.82-.31,1.35-1.05,1.58Z"/>
      <path className={styles.nameThree} d="M668.19,330.49c-4.8,4.45-8.83,6.68-12.07,6.68-4.84,0-7.27-3.77-7.27-11.31,0-.62.02-1.25.06-1.88.74-10.55,4.86-18.81,12.36-24.79,7.03-5.58,15.88-8.38,26.54-8.38h1.23c.66-5.93,1.56-14.9,2.7-26.91.16-1.09.31-2.17.47-3.22.12-1.64-.18-2.52-.88-2.63-.55-.08-.82-.31-.82-.7l.47-1.29c.16.04.09.1-.21.18-.29.08-.56.12-.79.12-1.29,0-1.93-.68-1.93-2.05,0-1.09.55-1.8,1.64-2.11.82-.27,1.52-.41,2.11-.41,2.11,0,3.22,2.58,3.34,7.73-.04-.74-.2.72-.47,4.39-.62,6.13-1.49,15.27-2.58,27.42l-.06.53c.39.31.62.72.7,1.23,1.44-.04,2.17.61,2.17,1.93,0,.31-.08.63-.23.94-.67,1.6-1.72,3.57-3.16,5.92-.31,6.56-.62,18.95-.94,37.15-.04,1.48-.8,2.23-2.29,2.23-1.33,0-1.99-.66-1.99-1.99.16-8.12.68-18.81,1.58-32.05-6.95,9.81-13.52,17.56-19.69,23.26ZM688.75,294.87c-.35-.39-.72-.76-1.11-1.11-9.96,0-18.16,2.58-24.61,7.73-6.76,5.43-10.49,12.93-11.19,22.5-.47,6.8,1.02,10.2,4.45,10.2,4.06,0,10.31-5.14,18.75-15.41,5.82-7.03,10.29-13.48,13.42-19.34l.29-4.57Z"/>
      <path className={styles.nameThree} d="M724.03,289.3c1.09,1.84,1.64,2.95,1.64,3.34,0,1.13-.61,1.7-1.82,1.7-.59,0-1.46-.92-2.64-2.75l-.29-.35c-5.16,3.56-9.79,8.53-13.89,14.91s-6.89,12.9-8.38,19.54c-.47,3.98-.8,7.44-1,10.37v.23h-.06c-.12.86-.64,1.29-1.58,1.29-.86,0-1.35-.37-1.46-1.11v-.23c-.2-3.75.23-7.81,1.29-12.19,1.99-16.21,2.95-27.09,2.87-32.64l-1-.06c-.59-.04-.68-.51-.29-1.41.94-2.03,1.97-3.05,3.11-3.05.55,0,.84.53.88,1.58.27,6.17-.08,13.77-1.05,22.79,5-10.55,11.37-18.4,19.1-23.55.23-1.25,1-1.72,2.29-1.41.35-.19.7-.29,1.05-.29,1.21,0,1.82.63,1.82,1.88,0,.55-.2,1.02-.59,1.41Z"/>
      <path className={styles.nameThree} d="M731.12,337.29c-3.09,0-5.51-1.76-7.27-5.27-1.52-2.97-2.17-5.98-1.93-9.02.82-11.87,5.64-21.93,14.47-30.18.47-.47.98-.7,1.52-.7,1.37,0,2.05.7,2.05,2.11,0,.59-.25,1.11-.76,1.58-8.87,8.32-13.65,17.38-14.36,27.19-.2,2.62.36,5.16,1.67,7.62,1.31,2.46,2.88,3.69,4.72,3.69,5.86,0,11.19-2.93,16-8.79,4.49-5.51,6.95-11.44,7.38-17.81.27-3.91-1.09-7.01-4.1-9.32-1.25-.94-2.5-1.85-3.75-2.75-1.37-1.13-2.31-2.36-2.81-3.69-.08-.27-.12-.53-.12-.76,0-1.48.78-2.23,2.34-2.23.86,0,1.44.43,1.76,1.29.43,1.13,1.29,2.25,2.58,3.34,1.09.9,2.19,1.8,3.28,2.7,2.54,2.38,3.81,5.61,3.81,9.67,0,7.23-2.56,14.14-7.68,20.74-5.47,7.07-11.74,10.61-18.81,10.61Z"/>
    </g>
  </g>
</svg>