<?xml version="1.0" encoding="UTF-8"?>
<svg xmlns="http://www.w3.org/2000/svg" viewBox="0 0 1080 1080">
  <g id="Layer_2" data-name="Layer 2">
    <rect width="1080" height="1080" style="fill: #000; stroke-width: 0px;"/>
  </g>
  <g id="Layer_3" data-name="Layer 3">
    <path d="M384.83,860.75s28.97,53.95,66.1,52.56c34.55-1.3,51.76-14.33,52.56-52.56.8-38.22,0-355.16,0-355.16h102.73v371.09s4.12,121.93-140.15,129.01c-134.02,6.57-162.45-96.55-162.45-96.55l81.23-48.38Z" style="fill: #fff; stroke: #000; stroke-miterlimit: 10;"/>
    <path d="M984.9,580.38l-79.63,51.56s-28.67-49.17-69.28-42.8c-41.98,6.59-50.97,50.17-35.04,68.48,15.93,18.32,39.82,27.87,77.24,43,37.43,15.13,127.01,50.57,134.98,140.55,7.96,89.99-41.81,164.78-167.63,164.81s-171.21-78.01-186.34-105.88l86.8-47.38s25.08,59.72,95.16,60.12c70.08.4,71.67-45.79,69.68-54.95-1.99-9.16-11.15-35.04-65.7-55.34s-112.28-50.17-135.77-91.58c-23.49-41.41-17.21-106.68-9.72-129.01,6.77-20.17,52.35-86,136.95-83.22,84.6,2.79,117.65,31.85,148.31,81.62Z" style="fill: #fff; stroke: #000; stroke-miterlimit: 10;"/>
  </g>
</svg>