<?xml version="1.0" encoding="UTF-8"?>
<svg id="Layer_2" xmlns="http://www.w3.org/2000/svg" viewBox="0 0 1065.76 583.06">
  <defs>
    <style>
      .studio-one {
        fill: #231f20;
        stroke: #231f20;
        stroke-miterlimit: 10;
      }
    </style>
  </defs>
  <g id="Layer_1-2" data-name="Layer_1">
    <g>
      <g>
        <path class="studio-one" d="M44.62,374.85l82.84-17.08c22.26-17.2,32.2-44.24,27.41-71.32-5.82-32.92-37.67-43.6-62.05-51.61-15.57-5.24-28.12-10.34-29.84-20.02-1.71-9.68,4.49-19.77,18.05-22.16,15.82-2.8,36.11.94,49.87,12.82l22.81-42.31c-20.42-15.7-50-21.12-77.11-16.32C27.54,155.51,3.42,196.06,9.7,231.56c6.11,34.54,37.84,44.57,62.22,52.57,15.89,5.18,28.12,10.34,29.89,20.34,1.94,10.97-4.8,21.82-19.64,24.44-20.66,3.65-43.79-2.91-58.14-16.35L.63,355.33c10.77,9.77,26.23,16.58,44,19.52Z"/>
        <polygon class="studio-one" points="205.06 341.39 257.39 330.59 264.08 164.28 310.24 156.12 312.2 108.84 167.92 134.35 165.96 181.63 212.12 173.47 205.06 341.39"/>
        <path class="studio-one" d="M363.66,309.24l110.87-22.86c13.88-16.71,20.89-39.47,21.98-67l6.12-144.21-52.61,9.3-6.01,144.86c-1.02,22.48-9.44,36.95-28.81,40.38-18.07,3.2-29.38-6.12-31.94-20.65-.57-3.23-1.05-7.8-.76-11.85l5.88-141.84-52.61,9.3-5.86,138.17c-.04,7.33.42,15.57,1.05,19.12,3.84,21.7,15.4,38.08,32.7,47.28Z"/>
        <path class="studio-one" d="M669.13,246.82c34.48-34.4,39.95-86.49,33.7-121.83-9.19-51.97-53.02-75.84-92.07-68.93l-73.91,13.07-8.67,206.77,140.96-29.07ZM587.17,107.15l21.95-3.88c19.37-3.42,36.25,9.23,40.59,33.76,5.59,31.63-5.38,88.16-45.73,95.29l-22.27,3.94,5.46-129.12Z"/>
        <polygon class="studio-one" points="778.62 224.24 786.98 24.89 734.69 34.14 726.26 235.03 778.62 224.24"/>
        <path class="studio-one" d="M975.72,180.75c19.36-32.29,25.37-74.45,19.3-108.77-8.73-49.38-48.25-79.01-100.22-69.82-70.69,12.5-97.66,97.15-86.98,157.51,3.68,20.81,12.74,38.05,25.84,50.38l142.06-29.3ZM899.73,48.89c21.3-3.77,37.77,10.3,41.99,34.18,6.16,34.86-6.67,94.05-38.95,99.75-21.3,3.77-37.39-10.03-41.61-33.92-6.22-35.18,6.29-94.31,38.57-100.02Z"/>
        <path class="studio-one" d="M1063.3,162.69c-2.7-14.37-16.34-24.11-31.09-21.51-15.63,2.76-27.11,17.49-26.18,33.32l57.27-11.81Z"/>
      </g>
      <g>
        <path class="studio-one" d="M933.23,361.47c14.36,13.44,37.49,20,58.14,16.35,14.85-2.63,21.58-13.47,19.64-24.44-1.77-10.01-14-15.17-29.89-20.34-24.38-8-56.11-18.04-62.22-52.57-6.28-35.5,17.84-76.05,66.9-84.73,27.11-4.79,56.7.63,77.11,16.32l-22.81,42.31c-13.75-11.88-34.05-15.62-49.87-12.82-13.56,2.4-19.76,12.48-18.05,22.16,1.71,9.68,14.27,14.79,29.84,20.02,24.38,8,56.23,18.68,62.05,51.61,7.02,39.7-17.59,79.34-66.33,87.95-35.18,6.22-68.89-1.8-87.92-19.07l23.4-42.75Z"/>
        <path class="studio-one" d="M101.36,398.72c15.82-2.8,36.11.94,49.87,12.82l22.81-42.31c-2.73-2.1-5.62-4-8.65-5.73l-125.48,25.88c-9.28,14.8-12.75,32.05-9.89,48.26,6.11,34.54,37.84,44.57,62.22,52.57,15.89,5.18,28.12,10.34,29.89,20.34,1.94,10.97-4.8,21.82-19.64,24.44-20.66,3.65-43.79-2.91-58.14-16.35l-23.4,42.75c19.03,17.27,52.74,25.29,87.92,19.07,48.74-8.62,73.35-48.25,66.33-87.95-5.82-32.92-37.67-43.6-62.05-51.61-15.57-5.24-28.12-10.34-29.84-20.02-1.71-9.68,4.49-19.77,18.05-22.16Z"/>
        <path class="studio-one" d="M319.35,331.04l-5.43,130.95c-1.02,22.48-9.44,36.95-28.81,40.38-18.07,3.2-29.38-6.12-31.94-20.65-.57-3.23-1.05-7.8-.76-11.85l5.22-126.1-52.69,10.87-5.12,120.88c-.04,7.33.42,15.57,1.05,19.12,7.13,40.35,40.98,62.32,88.75,53.88,51.32-9.07,74.74-44.17,76.81-96.46l5.6-131.86-52.66,10.86Z"/>
        <path class="studio-one" d="M520.43,289.57l-114.16,23.54-8.9,212.34,52.29-9.25,3.18-76.12,33.57-5.94c63.26-11.19,79.42-60.98,72.92-97.77-3.98-22.49-18.33-39.94-38.89-46.81ZM481.53,387.75l-26.79,4.74,2.55-53.37,25.18-4.45c12.27-2.17,21.38,4.21,23.55,16.47,2.91,16.46-5.44,33.25-24.48,36.62Z"/>
        <polygon class="studio-one" points="713.88 293.74 715.86 249.27 585.95 276.06 576.83 493.73 706.58 470.78 708.33 424.21 631.19 437.85 632.8 394.29 708.01 380.99 710.08 334.36 634.88 347.65 636.74 307.38 713.88 293.74"/>
        <path class="studio-one" d="M824.08,227.99l-37.06,6.55-42.39,8.74-9.33,222.42,52.29-9.25,3.33-77.15,20.98-3.71,25.39,72.07,56.16-9.93-31.64-77.29c23.75-12.52,42-46.7,35.55-83.18-6.28-35.5-38.75-55.39-73.29-49.29ZM819.46,328l-26.79,4.74,2.55-53.37,25.18-4.45c11.3-2,20.94,3.62,23.34,17.18,3.02,17.11-5.87,32.66-24.27,35.91Z"/>
      </g>
    </g>
  </g>
</svg>